PathFileType	4	(X/Y/Z)	P:\Projects\LMB_grand_challenge_database\project_only\opensim\experimental_data\SixthCompetition/DM_bouncy5_new.trc
DataRate	CameraRate	NumFrames	NumMarkers	Units	OrigDataRate	OrigDataStartFrame	OrigNumFrames
120	120	4	68	mm	120	128	342
Frame#	Time	Sternum			Neck			R_Shoulder			L_Shoulder			Xiphoid			Thoracic			R_Asis			L_Asis			R_Psis			L_Psis			Lumbar			R_Elbow			R_ElbowMedial			R_ShoulderAnterior			R_ShoulderPosterior			R_Wrist			R_Radius			R_Ulna			L_Elbow			L_ElbowMedial			L_ShoulderAnterior			L_ShoulderPosterior			L_Wrist			L_Ulna			L_Radius			L_Thigh_Superior			L_Thigh_Inferior			L_Thigh_Lateral			L_Knee_Lateral			L_Knee_Medial			L_Patella			L_Shank_Superior			L_Shank_Inferior			L_Shank_Lateral			L_Ankle_Lateral			L_Ankle_Medial			R_Thigh_Superior			R_Thigh_Inferior			R_Thigh_Lateral			R_Knee_Lateral			R_Knee_Medial			R_Patella			R_Shank_Superior			R_Shank_Inferior			R_Shank_Lateral			R_Ankle_Lateral			RankleMedial			R_Heel			R_Toe			R_Midfoot_Medial			R_Midfoot_Lateral			R_Hindfoot			R_Midfoot_Superior			R_ToeMedial			R_ToeLateral			L_Heel			L_Toe			L_Midfoot_Medial			L_Midfoot_Lateral			L_Hindfoot			L_Midfoot_Superior			L_ToeMedial			L_ToeLateral			Oglobal			Sacral			Xglobal			Yglobal			Zglobal			
		X1	Y1	Z1	X2	Y2	Z2	X3	Y3	Z3	X4	Y4	Z4	X5	Y5	Z5	X6	Y6	Z6	X7	Y7	Z7	X8	Y8	Z8	X9	Y9	Z9	X10	Y10	Z10	X11	Y11	Z11	X12	Y12	Z12	X13	Y13	Z13	X14	Y14	Z14	X15	Y15	Z15	X16	Y16	Z16	X17	Y17	Z17	X18	Y18	Z18	X19	Y19	Z19	X20	Y20	Z20	X21	Y21	Z21	X22	Y22	Z22	X23	Y23	Z23	X24	Y24	Z24	X25	Y25	Z25	X26	Y26	Z26	X27	Y27	Z27	X28	Y28	Z28	X29	Y29	Z29	X30	Y30	Z30	X31	Y31	Z31	X32	Y32	Z32	X33	Y33	Z33	X34	Y34	Z34	X35	Y35	Z35	X36	Y36	Z36	X37	Y37	Z37	X38	Y38	Z38	X39	Y39	Z39	X40	Y40	Z40	X41	Y41	Z41	X42	Y42	Z42	X43	Y43	Z43	X44	Y44	Z44	X45	Y45	Z45	X46	Y46	Z46	X47	Y47	Z47	X48	Y48	Z48	X49	Y49	Z49	X50	Y50	Z50	X51	Y51	Z51	X52	Y52	Z52	X53	Y53	Z53	X54	Y54	Z54	X55	Y55	Z55	X56	Y56	Z56	X57	Y57	Z57	X58	Y58	Z58	X59	Y59	Z59	X60	Y60	Z60	X61	Y61	Z61	X62	Y62	Z62	X63	Y63	Z63	X64	Y64	Z64	X65	Y65	Z65	X66	Y66	Z66	X67	Y67	Z67	X68	Y68	Z68	

129	1.925	78.7773	1316.15	187.965	-77.54089999999999	1408.58	184.913	11.7754	1337.26	359.793	16.9751	1357.54	14.0746	82.5583	1149.47	182.235	-185.743	1236.2	178.498	-23.2996	918.755	301.198	-15.041	945.296	29.2187	-222.971	979.623	194.246	-222.708	979.3819999999999	115.741	-217.217	1028.03	162.672	-89.6073	1035.42	452.941	-0	0	0	-0	0	0	-0	0	0	-26.9312	765.915	429.478	-18.7413	778.91	388.207	-74.57989999999999	766.576	432.482	148.507	1054.85	-61.2425	-0	0	0	-0	0	0	-0	0	0	358.803	894.232	-31.8561	320.135	868.1319999999999	-37.0651	352.121	913.86	10.3518	-123.969	773.013	0.816439	-165.979	555.282	53.0523	-92.52500000000001	630.915	70.88930000000001	-0	0	0	-0	0	0	-171.049	450.427	116.987	-259.572	418.81	47.8377	-406.751	189.05	49.1752	-307.398	281.743	120.8	-0	0	0	-0	0	0	-63.7284	755.426	330.234	53.345	573.397	283.881	57.8777	713.949	306.355	-0	0	0	-0	0	0	164.6	530.961	220.49	88.9868	381.358	293.807	160.698	186.158	279.158	183.906	326.852	214.696	-0	0	0	-0	0	0	126.904	56.1335	224.457	419.287	100.214	224.81	350.067	68.078	170.871	341.292	56.6756	287.256	231.313	33.0176	276.546	273.125	138.055	230.867	387.478	81.9932	182.657	383.153	76.72	273.162	-528.804	83.6534	101.736	-233.066	46.7881	103.123	-315.685	32.8049	157.973	-324.509	29.2576	43.887	-431.938	35.1658	48.4983	-356.382	122.484	99.46250000000001	-272.16	32.1481	146.309	-271.087	31.6619	51.4938	-0	0	0	-222.839	979.503	154.993	-200	0	0	-0	0	200	-0	200	0	
130	1.933333	89.4041	1314.67	189.937	-67.30289999999999	1406.75	187.722	22.5971	1334.7	362.11	26.3831	1356.54	16.5965	93.88290000000001	1148.03	183.498	-175.094	1234.3	180.646	-11.0531	917.508	301.98	-4.37583	944.135	29.4298	-211.425	977.707	195.942	-211.55	977.577	117.381	-206.069	1026.21	164.274	-79.8798	1032.87	454.426	-0	0	0	-0	0	0	-0	0	0	-18.6313	762.9059999999999	429.8	-10.4551	775.518	388.514	-66.11620000000001	763.5549999999999	432.625	157.98	1054.03	-59.0626	-0	0	0	-0	0	0	-0	0	0	366.266	890.49	-31.0851	327.144	864.862	-36.2178	360.268	910.013	11.2651	-114.203	771.622	1.30493	-156.945	553.856	52.5611	-82.6947	628.813	69.6176	-0	0	0	-0	0	0	-161.188	447.688	116.269	-251.615	417.645	48.2153	-404.293	190.988	49.5695	-301.766	281.655	120.611	-0	0	0	-0	0	0	-50.751	753.002	328.997	65.3533	571.385	282.963	70.2723	711.461	306.83	-0	0	0	-0	0	0	175.476	528.662	218.838	98.9678	379.709	293.427	168.331	183.75	279.917	193.292	323.717	214.904	-0	0	0	-0	0	0	129.795	57.1796	225.445	423.984	87.4926	225.209	352.955	58.7351	170.552	344.337	47.532	286.967	233.094	29.5718	276.513	279.97	132.248	231.129	391.192	70.74550000000001	182.96	386.922	65.67740000000001	273.501	-526.994	87.9699	102.048	-232.7	46.2351	103.106	-314.718	32.8844	157.476	-324.019	29.6129	43.4189	-431.309	37.5894	48.3935	-353.698	123.43	99.1825	-271.941	32.0182	146.33	-270.845	31.3157	51.4318	-0	0	0	-211.487	977.6420000000001	156.662	-200	0	0	-0	0	200	-0	200	0	
131	1.941667	100.128	1313.49	191.974	-56.8597	1405.24	190.78	33.5265	1332.46	364.68	35.9155	1356.04	18.8142	104.927	1146.67	184.483	-164.08	1232.68	182.662	1.04318	916.624	302.644	6.36838	943.022	29.6454	-199.876	976.311	197.33	-200.334	976.294	118.775	-194.801	1024.91	165.578	-70.0373	1030.27	455.659	-0	0	0	-0	0	0	-0	0	0	-10.2587	760.148	430.047	-2.17638	772.3339999999999	388.655	-58.1395	761.342	433.501	167.246	1053.4	-56.7825	-0	0	0	-0	0	0	-0	0	0	373.056	886.379	-30.4887	333.575	861.2569999999999	-35.5593	367.307	905.768	11.8321	-104.023	770.4109999999999	1.7675	-146.896	552.35	52.173	-72.0894	626.963	67.9571	-0	0	0	-0	0	0	-150.864	445.453	115.316	-242.632	416.661	48.3383	-400.754	193.014	49.5412	-295.439	281.991	120.544	-0	0	0	-0	0	0	-37.9708	751.342	327.983	77.8155	570.301	282.566	82.7826	709.84	306.981	-0	0	0	-0	0	0	187.633	527.684	217.455	109.591	378.982	293.876	175.702	181.967	280.471	202.45	321.421	215.007	-0	0	0	-0	0	0	132.095	58.8547	225.499	428.205	75.2757	226.079	355.408	49.2201	172.068	345.526	39.2284	288.494	234.244	28.002	276.759	285.845	126.655	231.699	394.823	60.6553	184.017	390.095	55.2588	274.217	-525.487	93.4522	103.263	-232.103	45.6021	103.193	-314.257	32.9403	157.001	-324.711	29.3791	43.0531	-430.121	40.1337	48.6349	-350.833	124.313	98.60590000000001	-271.678	31.7472	146.424	-270.523	30.8942	51.335	-0	0	0	-200.105	976.303	158.053	-200	0	0	-0	0	200	-0	200	0	
132	1.95	110.977	1312.77	194.059	-46.1408	1404.13	193.873	44.6888	1330.37	367.218	45.8386	1355.85	21.3707	116.246	1145.72	185.676	-153.174	1231.79	184.362	12.4841	916.491	303.732	17.0582	941.922	29.9467	-188.658	975.571	198.468	-189.173	975.548	120.05	-183.76	1024.24	166.464	-60.0655	1027.8	456.971	-0	0	0	-0	0	0	-0	0	0	-1.61658	757.473	430.431	6.31598	769.379	389.026	-49.1785	758.861	433.709	176.246	1053.05	-54.8105	-0	0	0	-0	0	0	-0	0	0	379.08	882.215	-30.133	339.168	857.607	-34.9062	373.807	901.515	12.2498	-93.38030000000001	769.174	2.47569	-136.155	550.981	51.8516	-61.4743	625.4160000000001	67.1003	-0	0	0	-0	0	0	-139.864	442.171	115.04	-232.829	415.955	47.8602	-396.132	195.896	49.576	-288.216	282.332	120.232	-0	0	0	-0	0	0	-25.6025	750.991	327.979	90.05589999999999	570.364	282.828	94.7101	709.841	307.017	-0	0	0	-0	0	0	200.109	527.582	217.104	120.745	379.548	295.026	182.467	181.018	280.488	211.545	320.051	214.895	-0	0	0	-0	0	0	133.401	59.9946	225.222	431.274	66.14749999999999	226.419	356.612	42.8052	173.282	345.723	34.2227	289.731	235.011	27.7183	276.799	290.493	123.486	231.818	396.89	52.7719	183.757	392.113	48.0519	274.589	-522.335	99.2176	103.342	-231.661	44.9267	103.135	-312.792	35.1008	159.451	-323.095	28.4031	45.6305	-428.468	41.0497	50.0056	-347.093	125.552	98.2629	-271.35	31.4216	146.413	-270.181	30.4839	51.1536	-0	0	0	-188.915	975.559	159.259	-200	0	0	-0	0	200	-0	200	0	
